<?xml version="1.0" encoding="UTF-8"?>
<svg width="119px" height="30px" viewBox="0 0 119 30" version="1.1" xmlns="http://www.w3.org/2000/svg" xmlns:xlink="http://www.w3.org/1999/xlink">
    <!-- Generator: Sketch 48.1 (47250) - http://www.bohemiancoding.com/sketch -->
    <title>Logo</title>
    <desc>Created with Sketch.</desc>
    <defs></defs>
    <g id="navbar/login" stroke="none" stroke-width="1" fill="none" fill-rule="evenodd" transform="translate(-137.000000, -12.000000)">
        <g fill-rule="nonzero" id="Logo">
            <g transform="translate(137.000000, 12.000000)">
                <g id="logo">
                    <path d="M82.1419355,24.2709677 L66.7935484,24.2709677 L66.7935484,8.98064516 L82.1419355,8.98064516 L82.1419355,24.2709677 Z M68.5935484,22.4419355 L80.2645161,22.4419355 L80.2645161,10.7612903 L68.6322581,10.7612903 L68.5935484,22.4419355 Z" id="Shape" fill="#ED6D1A"></path>
                    <rect id="Rectangle-path" fill="#ED6D1A" x="70.0741935" y="13.383871" width="8.78709677" height="1.04516129"></rect>
                    <rect id="Rectangle-path" fill="#ED6D1A" x="70.0741935" y="16.083871" width="8.78709677" height="1.04516129"></rect>
                    <rect id="Rectangle-path" fill="#ED6D1A" x="70.0741935" y="18.783871" width="8.78709677" height="1.04516129"></rect>
                    <path d="M0,0.977419355 C8.51612903,0.696774194 12.5806452,4.14193548 12.5806452,9.23225806 C12.5806452,13.5774194 9.67741935,16.7322581 3.51290323,17.3806452 L3.51290323,24.2516129 L0.0483870968,24.2516129 L0,0.977419355 Z M8.94193548,9.23225806 C8.94193548,5.78709677 6.62903226,4.02580645 3.46451613,3.81290323 L3.46451613,14.6612903 C6.62903226,14.4387097 8.93225806,12.6774194 8.93225806,9.23225806 L8.94193548,9.23225806 Z" id="Shape" fill="#3A4659"></path>
                    <polygon id="Shape" fill="#3A4659" points="16.016129 1.23870968 19.3354839 1.23870968 19.3354839 24.2225806 16.016129 24.2225806"></polygon>
                    <path d="M31.4903226,14.283871 L31.4903226,13.983871 C31.5325084,13.1687113 31.2139812,12.3762626 30.6193687,11.8170659 C30.0247562,11.2578692 29.2142636,10.9885438 28.4032258,11.0806452 C27.3268421,11.1238196 26.2702526,11.3838526 25.2967742,11.8451613 L24.0290323,9.54193548 C25.5575973,8.96435344 27.1757265,8.65972586 28.8096774,8.64193548 C32.4096774,8.64193548 34.7709677,10.5774194 34.7709677,13.8677419 L34.7709677,24.5129032 L32.3322581,23.5935484 C31.2919543,24.214994 30.0987097,24.533416 28.8870968,24.5129032 C25.5,24.5129032 23.0806452,22.2774194 23.0806452,19.4516129 C23.0806452,16.3548387 25.983871,14.4967742 31.4903226,14.283871 Z M29.2741935,22.0258065 C30.062688,22.0373027 30.8358864,21.8077067 31.4903226,21.3677419 L31.4903226,16.616129 C28.3258065,16.616129 26.4483871,17.7 26.4483871,19.5193548 C26.4720924,20.2273325 26.7864975,20.8942533 27.3175566,21.3630502 C27.8486156,21.8318472 28.5493896,22.0610844 29.2548387,21.9967742 L29.2741935,22.0258065 Z" id="Shape" fill="#3A4659"></path>
                    <path d="M43.0258065,23.6032258 L37.2193548,8.93225806 L40.7612903,8.93225806 L43.5774194,16.7225806 L44.4967742,19.9645161 L45.4064516,16.7322581 L47.9709677,8.93225806 L51.5129032,8.93225806 L46.6741935,22.6645161 C45.2709677,26.6129032 44.3806452,27.7741935 41.5741935,29.3612903 L39.9483871,27.2806452 C41.8354839,26.1096774 42.8032258,25.1322581 43.0258065,23.6032258 Z" id="Shape" fill="#3A4659"></path>
                    <path d="M57.8806452,16.0741935 L57.8806452,24.2516129 L54.416129,24.2516129 L54.416129,1.23870968 L64.5483871,1.23870968 L64.5483871,3.78387097 L57.8806452,3.78387097 L57.8806452,13.4612903 M57.8806452,10.9451613 L63.6193548,10.9451613 L63.6193548,13.4903226 L57.8806452,13.4903226" id="Shape" fill="#3A4659"></path>
                    <path d="M84.9580645,8.6516129 L87.7645161,10.1709677 C89.3385618,9.21643334 91.139909,8.70176272 92.9806452,8.68064516 L92.9806452,11.3709677 C91.0451613,11.3709677 89.4774194,11.6419355 88.3645161,12.5516129 L88.3645161,24.2516129 L84.9580645,24.2516129 L84.9580645,8.6516129 Z" id="Shape" fill="#3A4659"></path>
                    <path d="M95.7967742,8.6516129 L98.516129,10.1516129 C99.7659413,9.25330961 101.255146,8.7479235 102.793548,8.7 C105.067742,8.7 106.664516,9.36774194 107.690323,10.6354839 C109.019094,9.43119584 110.736275,8.7443235 112.529032,8.7 C116.477419,8.7 118.519355,10.7032258 118.519355,14.3225806 L118.519355,24.2516129 L115.209677,24.2516129 L115.209677,14.3516129 C115.308306,13.5158446 115.017208,12.6811352 114.420243,12.0879491 C113.823279,11.4947629 112.986738,11.2089705 112.151613,11.3129032 C110.928429,11.3179574 109.747481,11.7608129 108.822581,12.5612903 L108.822581,24.2516129 L105.503226,24.2516129 L105.503226,14.3516129 C105.605189,13.516836 105.316581,12.6816718 104.720973,12.0879546 C104.125365,11.4942375 103.289287,11.2082865 102.454839,11.3129032 C101.236838,11.3209383 100.060975,11.759744 99.1354839,12.5516129 L99.1354839,24.2516129 L95.8258065,24.2516129 L95.7967742,8.6516129 Z" id="Shape" fill="#3A4659"></path>
                    <rect id="Rectangle-path" fill="#ED6D1A" transform="translate(44.374723, 7.000346) rotate(-45.000000) translate(-44.374723, -7.000346) " x="42.8505293" y="5.47615274" width="3.0483871" height="3.0483871"></rect>
                </g>
            </g>
        </g>
    </g>
</svg>